<svg id="Capa_1" enable-background="new 0 0 512.016 512.016" height="512" viewBox="0 0 512.016 512.016" width="512" xmlns="http://www.w3.org/2000/svg"><g><path d="m417.138 0h-397.13c-11.05 0-20 8.95-20 20v456.4c0 17.529 12.585 31.875 28.95 34.99 6.432 1.072 9.056.485 11.39.29 17.32-2.39 30.87-17.87 30.87-36.14v-49.74c0-8.28 6.72-15 15-15h349.57c11.05 0 20-8.95 20-20v-352.15c0-21.35-17.3-38.65-38.65-38.65zm-51.66 337.91h-275.16c-8.28 0-15-6.72-15-15s6.72-15 15-15h275.16c8.28 0 15 6.72 15 15s-6.72 15-15 15zm0-78.71h-275.16c-8.28 0-15-6.72-15-15 0-8.29 6.72-15 15-15h275.16c8.28 0 15 6.71 15 15 0 8.28-6.72 15-15 15zm0-78.72h-275.16c-8.28 0-15-6.71-15-15 0-8.28 6.72-15 15-15h275.16c8.28 0 15 6.72 15 15 0 8.29-6.72 15-15 15zm0-78.71h-275.16c-8.28 0-15-6.72-15-15 0-8.29 6.72-15 15-15h275.16c8.28 0 15 6.71 15 15 0 8.28-6.72 15-15 15z"/><path d="m512.008 454.045v22.355c0 19.661-15.939 35.6-35.6 35.6h-385.71c6.65-10.26 10.52-22.49 10.52-35.6v-22.355c0-7.315 5.93-13.246 13.246-13.246h384.299c7.315.001 13.245 5.931 13.245 13.246z"/></g></svg>