<svg id="Layer_1" enable-background="new 0 0 512.085 512.085" height="512" viewBox="0 0 512.085 512.085" width="512" xmlns="http://www.w3.org/2000/svg"><g><path d="m460.505 64.485c-68.63-68.62-180.28-68.62-248.91 0l-174.17 174.17c-49.9 49.91-49.9 131.11 0 181.02 50.04 50.02 130.993 50.028 181.02 0l174.17-174.17c31.26-31.26 31.268-81.872 0-113.14-31.259-31.26-81.862-31.269-113.13 0l-174.18 174.17c-6.04 6.05-9.37 14.08-9.37 22.63 0 28.599 34.627 42.6 54.63 22.63l174.17-174.18c10.093-10.094 27.31-2.843 27.31 11.32 0 4.27-1.66 8.29-4.68 11.31l-174.17 174.17c-25.015 25.015-65.511 25.02-90.51 0-25.018-24.997-25.019-65.491 0-90.51l174.17-174.17c43.767-43.766 114.623-43.767 158.39 0 43.67 43.67 43.67 114.72 0 158.39l-176.32 176.33c-12.48 12.47-12.48 32.77 0 45.25 12.47 12.47 32.78 12.49 45.25 0l176.33-176.32c68.761-68.761 68.785-180.115 0-248.9z"/></g></svg>