<?xml version="1.0" encoding="UTF-8" standalone="no"?>
<!-- Svg Vector Icons : http://www.onlinewebfonts.com/icon -->

<svg
   xmlns:dc="http://purl.org/dc/elements/1.1/"
   xmlns:cc="http://creativecommons.org/ns#"
   xmlns:rdf="http://www.w3.org/1999/02/22-rdf-syntax-ns#"
   xmlns:svg="http://www.w3.org/2000/svg"
   xmlns="http://www.w3.org/2000/svg"
   xmlns:sodipodi="http://sodipodi.sourceforge.net/DTD/sodipodi-0.dtd"
   xmlns:inkscape="http://www.inkscape.org/namespaces/inkscape"
   version="1.1"
   x="0px"
   y="0px"
   viewBox="0 0 1000 1000"
   enable-background="new 0 0 1000 1000"
   xml:space="preserve"
   id="svg8"
   sodipodi:docname="calendar.svg"
   inkscape:version="0.92.4 (5da689c313, 2019-01-14)"><defs
   id="defs12" /><sodipodi:namedview
   pagecolor="#ffffff"
   bordercolor="#666666"
   borderopacity="1"
   objecttolerance="10"
   gridtolerance="10"
   guidetolerance="10"
   inkscape:pageopacity="0"
   inkscape:pageshadow="2"
   inkscape:window-width="934"
   inkscape:window-height="514"
   id="namedview10"
   showgrid="false"
   inkscape:zoom="0.236"
   inkscape:cx="-302.9661"
   inkscape:cy="500"
   inkscape:window-x="984"
   inkscape:window-y="564"
   inkscape:window-maximized="0"
   inkscape:current-layer="svg8" />
<metadata
   id="metadata2"> Svg Vector Icons : http://www.onlinewebfonts.com/icon <rdf:RDF><cc:Work
     rdf:about=""><dc:format>image/svg+xml</dc:format><dc:type
       rdf:resource="http://purl.org/dc/dcmitype/StillImage" /><dc:title></dc:title></cc:Work></rdf:RDF></metadata>
<g
   id="g6"
   style="fill:#fffffe;fill-opacity:1"><path
     d="M360.7,597.3H220.6V453.8h140.1V597.3L360.7,597.3z M572.4,453.8H432.3v143.5h140.1V453.8L572.4,453.8z M784.1,453.8H644v143.5h140.1V453.8L784.1,453.8z M360.7,663.3H220.6v143.4h140.1V663.3L360.7,663.3z M572.4,663.3H432.3v143.4h140.1V663.3L572.4,663.3z M784.1,663.3H644v143.4h140.1V663.3L784.1,663.3z M836.3,164.3c0,24.4-19.4,44.3-43.2,44.3c-23.9,0-43.2-19.8-43.2-44.3V52.9c0-24.4,19.3-44.2,43.2-44.2c23.9,0,43.2,19.8,43.2,44.2V164.3L836.3,164.3z M252.4,52.7c0-24.4-19.4-44.2-43.3-44.2c-23.9,0-43.2,19.8-43.2,44.2v111.3c0,24.5,19.4,44.3,43.2,44.3c23.9,0,43.3-19.8,43.3-44.3V52.7L252.4,52.7z M888.6,117.3v45.3c0,53.9-42.8,97.7-95.5,97.7c-52.6,0-95.5-43.8-95.5-97.7v-45.3h-393v45.1c0,53.9-42.8,97.7-95.5,97.7c-52.6,0-95.4-43.9-95.4-97.7v-45.1H10v874.2h980V117.3H888.6L888.6,117.3z M894.9,894.1H105.1V352.4h789.7V894.1L894.9,894.1z"
     id="path4"
     style="fill:#fffffe;fill-opacity:1" /></g>
</svg>