<?xml version="1.0" encoding="UTF-8" standalone="no"?>
<!-- Svg Vector Icons : http://www.onlinewebfonts.com/icon -->

<svg
   xmlns:dc="http://purl.org/dc/elements/1.1/"
   xmlns:cc="http://creativecommons.org/ns#"
   xmlns:rdf="http://www.w3.org/1999/02/22-rdf-syntax-ns#"
   xmlns:svg="http://www.w3.org/2000/svg"
   xmlns="http://www.w3.org/2000/svg"
   xmlns:sodipodi="http://sodipodi.sourceforge.net/DTD/sodipodi-0.dtd"
   xmlns:inkscape="http://www.inkscape.org/namespaces/inkscape"
   version="1.1"
   x="0px"
   y="0px"
   viewBox="0 0 1000 1000"
   enable-background="new 0 0 1000 1000"
   xml:space="preserve"
   id="svg968"
   sodipodi:docname="chevron.svg"
   inkscape:version="0.92.4 (5da689c313, 2019-01-14)"><defs
   id="defs972" /><sodipodi:namedview
   pagecolor="#ffffff"
   bordercolor="#666666"
   borderopacity="1"
   objecttolerance="10"
   gridtolerance="10"
   guidetolerance="10"
   inkscape:pageopacity="0"
   inkscape:pageshadow="2"
   inkscape:window-width="1870"
   inkscape:window-height="1030"
   id="namedview970"
   showgrid="false"
   inkscape:zoom="0.838"
   inkscape:cx="500"
   inkscape:cy="500"
   inkscape:window-x="48"
   inkscape:window-y="48"
   inkscape:window-maximized="1"
   inkscape:current-layer="svg968" />
<metadata
   id="metadata930"> Svg Vector Icons : http://www.onlinewebfonts.com/icon <rdf:RDF><cc:Work
     rdf:about=""><dc:format>image/svg+xml</dc:format><dc:type
       rdf:resource="http://purl.org/dc/dcmitype/StillImage" /><dc:title></dc:title></cc:Work></rdf:RDF></metadata>
<g
   id="g966"
   style="fill:#ffffff;fill-opacity:1"><g
     id="g934"
     style="fill:#ffffff;fill-opacity:1"><path
       d="M924.3,254C880.5,179,821,119.5,746,75.7C670.9,31.9,588.9,10,500,10c-88.9,0-170.9,21.9-246,65.7C179,119.5,119.5,179,75.7,254C31.9,329.1,10,411.1,10,500c0,88.9,21.9,170.9,65.7,246C119.5,821,179,880.5,254,924.3c75.1,43.8,157.1,65.7,246,65.7s170.9-21.9,246-65.7C821,880.5,880.5,821,924.3,746c43.8-75.1,65.7-157.1,65.7-246C990,411.1,968.1,329.1,924.3,254z M818.4,589.9L753.3,655c-8.1,8.1-17.7,12.1-28.7,12.1c-11.1,0-20.6-4-28.7-12.1L500,459.2L304.1,655c-8.1,8.1-17.6,12.1-28.7,12.1c-11.1,0-20.6-4-28.7-12.1l-65.1-65.1c-8.1-8.1-12.1-17.7-12.1-28.7c0-11,4-20.6,12.1-28.7l289.7-289.7c8.1-8.1,17.7-12.1,28.7-12.1c11.1,0,20.6,4,28.7,12.1l289.7,289.7c8.1,8.1,12.1,17.7,12.1,28.7C830.5,572.3,826.5,581.9,818.4,589.9z"
       id="path932"
       style="fill:#ffffff;fill-opacity:1" /></g><g
     id="g936"
     style="fill:#ffffff;fill-opacity:1" /><g
     id="g938"
     style="fill:#ffffff;fill-opacity:1" /><g
     id="g940"
     style="fill:#ffffff;fill-opacity:1" /><g
     id="g942"
     style="fill:#ffffff;fill-opacity:1" /><g
     id="g944"
     style="fill:#ffffff;fill-opacity:1" /><g
     id="g946"
     style="fill:#ffffff;fill-opacity:1" /><g
     id="g948"
     style="fill:#ffffff;fill-opacity:1" /><g
     id="g950"
     style="fill:#ffffff;fill-opacity:1" /><g
     id="g952"
     style="fill:#ffffff;fill-opacity:1" /><g
     id="g954"
     style="fill:#ffffff;fill-opacity:1" /><g
     id="g956"
     style="fill:#ffffff;fill-opacity:1" /><g
     id="g958"
     style="fill:#ffffff;fill-opacity:1" /><g
     id="g960"
     style="fill:#ffffff;fill-opacity:1" /><g
     id="g962"
     style="fill:#ffffff;fill-opacity:1" /><g
     id="g964"
     style="fill:#ffffff;fill-opacity:1" /></g>
</svg>