<?xml version="1.0" encoding="UTF-8" standalone="no"?>
<!-- Svg Vector Icons : http://www.onlinewebfonts.com/icon -->

<svg
   xmlns:dc="http://purl.org/dc/elements/1.1/"
   xmlns:cc="http://creativecommons.org/ns#"
   xmlns:rdf="http://www.w3.org/1999/02/22-rdf-syntax-ns#"
   xmlns:svg="http://www.w3.org/2000/svg"
   xmlns="http://www.w3.org/2000/svg"
   xmlns:sodipodi="http://sodipodi.sourceforge.net/DTD/sodipodi-0.dtd"
   xmlns:inkscape="http://www.inkscape.org/namespaces/inkscape"
   version="1.1"
   x="0px"
   y="0px"
   viewBox="0 0 1000 1000"
   enable-background="new 0 0 1000 1000"
   xml:space="preserve"
   id="svg8"
   sodipodi:docname="collapse.svg"
   inkscape:version="0.92.4 (5da689c313, 2019-01-14)"><defs
   id="defs12" /><sodipodi:namedview
   pagecolor="#ffffff"
   bordercolor="#666666"
   borderopacity="1"
   objecttolerance="10"
   gridtolerance="10"
   guidetolerance="10"
   inkscape:pageopacity="0"
   inkscape:pageshadow="2"
   inkscape:window-width="934"
   inkscape:window-height="514"
   id="namedview10"
   showgrid="false"
   inkscape:zoom="0.236"
   inkscape:cx="-302.9661"
   inkscape:cy="500"
   inkscape:window-x="984"
   inkscape:window-y="564"
   inkscape:window-maximized="0"
   inkscape:current-layer="svg8" />
<metadata
   id="metadata2"> Svg Vector Icons : http://www.onlinewebfonts.com/icon <rdf:RDF><cc:Work
     rdf:about=""><dc:format>image/svg+xml</dc:format><dc:type
       rdf:resource="http://purl.org/dc/dcmitype/StillImage" /><dc:title></dc:title></cc:Work></rdf:RDF></metadata>
<g
   id="g6"
   style="fill:#ffffff;fill-opacity:1"><path
     d="M737.8,73.7c-3.3-1.8-7.2-2.3-10.9-1.2c-3.6,1-6.7,3.5-8.6,6.8L656.1,192c-3.8,6.9-1.3,15.6,5.6,19.4c105.4,58.2,170.9,169.1,170.9,289.3c0,182.1-148.2,330.3-330.3,330.3c-182.1,0-330.3-148.2-330.3-330.3c0-68.4,21.6-135.7,61.2-191.4l98.7,98.7c3.8,3.8,9.5,5.2,14.6,3.5c5.1-1.7,8.9-6.2,9.7-11.5l54.3-372c0.7-4.5-0.8-9-4-12.2s-7.7-4.7-12.2-4L22.2,66c-5.4,0.8-9.8,4.5-11.5,9.7c-1.7,5.1-0.4,10.8,3.5,14.6L120.9,197C52.3,283.2,14.7,390.6,14.7,500.8c0,268.9,218.8,487.7,487.7,487.7c268.9,0,487.7-218.8,487.7-487.7C990,323.3,893.4,159.6,737.8,73.7z"
     id="path4"
     style="fill:#ffffff;fill-opacity:1" /></g>
</svg>