<?xml version="1.0" encoding="UTF-8" standalone="no"?>
<!-- Svg Vector Icons : http://www.onlinewebfonts.com/icon -->

<svg
   xmlns:dc="http://purl.org/dc/elements/1.1/"
   xmlns:cc="http://creativecommons.org/ns#"
   xmlns:rdf="http://www.w3.org/1999/02/22-rdf-syntax-ns#"
   xmlns:svg="http://www.w3.org/2000/svg"
   xmlns="http://www.w3.org/2000/svg"
   xmlns:sodipodi="http://sodipodi.sourceforge.net/DTD/sodipodi-0.dtd"
   xmlns:inkscape="http://www.inkscape.org/namespaces/inkscape"
   version="1.1"
   x="0px"
   y="0px"
   viewBox="0 0 1000 1000"
   enable-background="new 0 0 1000 1000"
   xml:space="preserve"
   id="svg10"
   sodipodi:docname="expand.svg"
   inkscape:version="0.92.4 (5da689c313, 2019-01-14)"><defs
   id="defs14" /><sodipodi:namedview
   pagecolor="#ffffff"
   bordercolor="#666666"
   borderopacity="1"
   objecttolerance="10"
   gridtolerance="10"
   guidetolerance="10"
   inkscape:pageopacity="0"
   inkscape:pageshadow="2"
   inkscape:window-width="1920"
   inkscape:window-height="1080"
   id="namedview12"
   showgrid="false"
   inkscape:zoom="0.236"
   inkscape:cx="-302.9661"
   inkscape:cy="500"
   inkscape:window-x="0"
   inkscape:window-y="0"
   inkscape:window-maximized="0"
   inkscape:current-layer="svg10" />
<metadata
   id="metadata2"> Svg Vector Icons : http://www.onlinewebfonts.com/icon <rdf:RDF><cc:Work
     rdf:about=""><dc:format>image/svg+xml</dc:format><dc:type
       rdf:resource="http://purl.org/dc/dcmitype/StillImage" /><dc:title></dc:title></cc:Work></rdf:RDF></metadata>
<g
   id="g8"
   style="fill:#ffffff;fill-opacity:1"><g
     transform="translate(0.000000,511.000000) scale(0.100000,-0.100000)"
     id="g6"
     style="fill:#ffffff;fill-opacity:1"><path
       d="M1037.5,4972.3c-434.9-119.4-790.9-484.5-903.6-923.8c-29.3-117.2-33.8-610.6-33.8-3938.7c0-4186.5-9-3922.9,137.5-4209.1c83.4-166.7,304.2-403.3,468.7-502.5c69.9-42.8,191.5-101.4,272.6-130.7l146.5-51.8h3853.1c3677.3,0,3859.8,2.2,3988.3,40.6c414.6,128.4,700.8,398.8,865.3,822.4l58.6,151l6.8,3801.2c6.8,4130.2,11.3,3965.7-117.2,4242.9c-155.5,340.2-470.9,601.6-836,698.5c-117.2,29.3-592.6,33.8-3965.7,31.5C1846.4,5001.6,1127.6,4997.1,1037.5,4972.3z M8619.7,3820.9c139.7-72.1,132.9,146.5,132.9-3708.9c0-3307.8-2.2-3526.3-40.6-3600.7c-20.3-45.1-72.1-96.9-117.2-119.4c-74.4-36.1-281.7-38.3-3634.5-33.8l-3557.9,6.8l-76.6,83.4l-76.6,85.6v1791.3V116.5h1539l1536.7,2.3l971.1-986.9l973.4-986.9l-421.4-11.3c-256.9-6.7-437.1-20.3-464.2-38.3c-137.5-78.9-236.6-256.9-236.6-416.8c2.2-175.8,126.2-365,277.1-421.4c42.8-15.8,446.1-24.8,1180.7-24.8h1115.4l76.6,76.6l76.6,76.6v1135.7v1135.6l-65.4,103.7c-153.2,241.1-525,265.9-727.8,49.6c-99.1-105.9-108.1-164.5-108.1-633.2v-439.4l-991.4,977.9l-989.2,975.7l-2.3,1584v1581.8h1780.1C8342.5,3856.9,8561.1,3852.4,8619.7,3820.9z"
       id="path4"
       style="fill:#ffffff;fill-opacity:1" /></g></g>
</svg>