<?xml version="1.0" encoding="UTF-8" standalone="no"?>
<!-- Svg Vector Icons : http://www.onlinewebfonts.com/icon -->

<svg
   xmlns:dc="http://purl.org/dc/elements/1.1/"
   xmlns:cc="http://creativecommons.org/ns#"
   xmlns:rdf="http://www.w3.org/1999/02/22-rdf-syntax-ns#"
   xmlns:svg="http://www.w3.org/2000/svg"
   xmlns="http://www.w3.org/2000/svg"
   xmlns:sodipodi="http://sodipodi.sourceforge.net/DTD/sodipodi-0.dtd"
   xmlns:inkscape="http://www.inkscape.org/namespaces/inkscape"
   version="1.1"
   x="0px"
   y="0px"
   viewBox="0 0 1000 1000"
   enable-background="new 0 0 1000 1000"
   xml:space="preserve"
   id="svg6321"
   sodipodi:docname="guest.svg"
   inkscape:version="0.92.4 (5da689c313, 2019-01-14)"><defs
   id="defs6325" /><sodipodi:namedview
   pagecolor="#ffffff"
   bordercolor="#666666"
   borderopacity="1"
   objecttolerance="10"
   gridtolerance="10"
   guidetolerance="10"
   inkscape:pageopacity="0"
   inkscape:pageshadow="2"
   inkscape:window-width="1870"
   inkscape:window-height="1030"
   id="namedview6323"
   showgrid="false"
   inkscape:zoom="0.838"
   inkscape:cx="500"
   inkscape:cy="500"
   inkscape:window-x="48"
   inkscape:window-y="48"
   inkscape:window-maximized="1"
   inkscape:current-layer="svg6321" />
<metadata
   id="metadata6315"> Svg Vector Icons : http://www.onlinewebfonts.com/icon <rdf:RDF><cc:Work
     rdf:about=""><dc:format>image/svg+xml</dc:format><dc:type
       rdf:resource="http://purl.org/dc/dcmitype/StillImage" /></cc:Work></rdf:RDF></metadata>
<g
   id="g6319"
   style="fill:#006a98;fill-opacity:1"><path
     d="M500,10C229.4,10,10,229.4,10,500c0,270.6,219.4,490,490,490c270.6,0,490-219.4,490-490C990,229.4,770.6,10,500,10z M500,163.7c92,0,166.4,74.5,166.4,166.4c0,91.9-74.5,166.4-166.4,166.4c-92,0-166.4-74.5-166.4-166.4C333.6,238.3,408,163.7,500,163.7z M808.1,714.7H191.9c0-0.1,0-0.1,0-0.2c0-105.2,52.7-197.9,133.2-253.5c40,53.4,103.1,88.3,174.9,88.3s134.9-35,174.9-88.3c80.5,55.6,133.2,148.3,133.2,253.5C808.1,714.6,808.1,714.7,808.1,714.7z"
     id="path6317"
     style="fill:#006a98;fill-opacity:1" /></g>
</svg>