<?xml version="1.0" encoding="UTF-8" standalone="no"?>
<!-- Svg Vector Icons : http://www.onlinewebfonts.com/icon -->

<svg
   xmlns:dc="http://purl.org/dc/elements/1.1/"
   xmlns:cc="http://creativecommons.org/ns#"
   xmlns:rdf="http://www.w3.org/1999/02/22-rdf-syntax-ns#"
   xmlns:svg="http://www.w3.org/2000/svg"
   xmlns="http://www.w3.org/2000/svg"
   xmlns:sodipodi="http://sodipodi.sourceforge.net/DTD/sodipodi-0.dtd"
   xmlns:inkscape="http://www.inkscape.org/namespaces/inkscape"
   version="1.1"
   x="0px"
   y="0px"
   viewBox="0 0 1000 1000"
   enable-background="new 0 0 1000 1000"
   xml:space="preserve"
   id="svg8"
   sodipodi:docname="list.svg"
   inkscape:version="0.92.4 (5da689c313, 2019-01-14)"><defs
   id="defs12" /><sodipodi:namedview
   pagecolor="#ffffff"
   bordercolor="#666666"
   borderopacity="1"
   objecttolerance="10"
   gridtolerance="10"
   guidetolerance="10"
   inkscape:pageopacity="0"
   inkscape:pageshadow="2"
   inkscape:window-width="934"
   inkscape:window-height="514"
   id="namedview10"
   showgrid="false"
   inkscape:zoom="0.236"
   inkscape:cx="-302.9661"
   inkscape:cy="500"
   inkscape:window-x="984"
   inkscape:window-y="564"
   inkscape:window-maximized="0"
   inkscape:current-layer="svg8" />
<metadata
   id="metadata2"> Svg Vector Icons : http://www.onlinewebfonts.com/icon <rdf:RDF><cc:Work
     rdf:about=""><dc:format>image/svg+xml</dc:format><dc:type
       rdf:resource="http://purl.org/dc/dcmitype/StillImage" /><dc:title></dc:title></cc:Work></rdf:RDF></metadata>
<g
   id="g6"
   style="fill:#ffffff;fill-opacity:1"><path
     d="M915.1,46.4c20.9,0,38.6,7.2,53.1,21.8c14.5,14.5,21.8,32.3,21.8,53.2v57c0,20.9-7.3,38.6-21.8,53.1c-14.5,14.5-32.3,21.8-53.1,21.8H85c-20.9,0-38.6-7.3-53.2-21.8C17.3,217,10,199.3,10,178.4v-57c0-20.9,7.3-38.6,21.8-53.2C46.4,53.6,64.1,46.4,85,46.4H915.1z M915.1,396.5c20.9,0,38.6,7.3,53.1,21.8c14.5,14.5,21.8,32.3,21.8,53.1v57c0,20.9-7.3,38.6-21.8,53.1c-14.5,14.5-32.3,21.8-53.1,21.8H85c-20.9,0-38.6-7.3-53.2-21.8C17.3,567.1,10,549.4,10,528.5v-57c0-20.9,7.3-38.6,21.8-53.1c14.5-14.5,32.3-21.8,53.2-21.8H915.1L915.1,396.5z M915.1,746.7c20.9,0,38.6,7.3,53.1,21.8c14.5,14.5,21.8,32.2,21.8,53.1v57c0,20.9-7.3,38.6-21.8,53.2c-14.5,14.5-32.3,21.8-53.1,21.8H85c-20.9,0-38.6-7.2-53.2-21.8C17.3,917.3,10,899.5,10,878.7v-57c0-20.9,7.3-38.6,21.8-53.1c14.5-14.5,32.3-21.8,53.2-21.8H915.1z"
     id="path4"
     style="fill:#ffffff;fill-opacity:1" /></g>
</svg>