<?xml version="1.0" encoding="utf-8"?>
<!-- Generator: Adobe Illustrator 19.1.0, SVG Export Plug-In . SVG Version: 6.00 Build 0)  -->
<svg version="1.1" id="Layer_1" xmlns="http://www.w3.org/2000/svg" xmlns:xlink="http://www.w3.org/1999/xlink" x="0px" y="0px"
	 viewBox="0 0 28.9 28.9" style="enable-background:new 0 0 28.9 28.9;" xml:space="preserve">
<style type="text/css">
	.st0{fill:#494949;}
	.st1{clip-path:url(#SVGID_2_);}
	.st2{clip-path:url(#SVGID_4_);fill:#FFFFFF;}
	.st3{clip-path:url(#SVGID_6_);}
	.st4{clip-path:url(#SVGID_8_);fill:#FFFFFF;}
	.st5{clip-path:url(#SVGID_10_);}
	.st6{clip-path:url(#SVGID_12_);fill:#FFFFFF;}
	.st7{fill-rule:evenodd;clip-rule:evenodd;fill:#494949;}
	.st8{clip-path:url(#SVGID_14_);}
	.st9{clip-path:url(#SVGID_16_);fill-rule:evenodd;clip-rule:evenodd;fill:#FFFFFF;}
	.st10{clip-path:url(#SVGID_16_);fill:#FFFFFF;}
	.st11{clip-path:url(#SVGID_18_);}
	.st12{clip-path:url(#SVGID_20_);fill:none;stroke:#FFFFFF;stroke-width:2;stroke-miterlimit:10;}
	.st13{clip-path:url(#SVGID_22_);}
	.st14{clip-path:url(#SVGID_24_);fill:none;stroke:#FFFFFF;stroke-width:2;stroke-miterlimit:10;}
	.st15{clip-path:url(#SVGID_26_);}
	.st16{clip-path:url(#SVGID_28_);fill:none;stroke:#FFFFFF;stroke-width:2;stroke-miterlimit:10;}
	.st17{clip-path:url(#SVGID_30_);}
	.st18{clip-path:url(#SVGID_32_);fill:none;stroke:#FFFFFF;stroke-width:2;stroke-miterlimit:10;}
	.st19{fill:#FFFFFF;}
</style>
<g>
	<g>
		<g>
			<path class="st0" d="M14.5,28.9C6.5,28.9,0,22.4,0,14.5C0,6.5,6.5,0,14.5,0s14.5,6.5,14.5,14.5C28.9,22.4,22.4,28.9,14.5,28.9
				 M14.5,1.7C7.4,1.7,1.7,7.4,1.7,14.5c0,7.1,5.7,12.8,12.8,12.8s12.8-5.7,12.8-12.8C27.3,7.4,21.5,1.7,14.5,1.7"/>
			<path class="st0" d="M14.5,5.7c-3,0-5.4,2.4-5.4,5.4c0,3,2.4,5.4,5.4,5.4s5.4-2.4,5.4-5.4C19.9,8.1,17.4,5.7,14.5,5.7"/>
			<path class="st0" d="M14.5,25.9c3.5,0,6.6-1.6,8.7-4c-0.9-2.8-2.4-4.7-4.3-5.8c-1.2,1-2.7,1.7-4.4,1.7s-3.2-0.6-4.4-1.7
				c-1.9,1.1-3.5,3-4.3,5.8C7.9,24.4,11,25.9,14.5,25.9"/>
		</g>
	</g>
</g>
</svg>
