<?xml version="1.0" encoding="UTF-8" standalone="no"?>
<!-- Generator: Adobe Illustrator 22.1.0, SVG Export Plug-In . SVG Version: 6.00 Build 0)  -->

<svg
   xmlns:dc="http://purl.org/dc/elements/1.1/"
   xmlns:cc="http://creativecommons.org/ns#"
   xmlns:rdf="http://www.w3.org/1999/02/22-rdf-syntax-ns#"
   xmlns:svg="http://www.w3.org/2000/svg"
   xmlns="http://www.w3.org/2000/svg"
   xmlns:sodipodi="http://sodipodi.sourceforge.net/DTD/sodipodi-0.dtd"
   xmlns:inkscape="http://www.inkscape.org/namespaces/inkscape"
   version="1.1"
   id="Layer_1"
   x="0px"
   y="0px"
   viewBox="0 0 512 512"
   style="enable-background:new 0 0 512 512;"
   xml:space="preserve"
   sodipodi:docname="poll.svg"
   inkscape:version="0.92.4 (5da689c313, 2019-01-14)"><metadata
   id="metadata11"><rdf:RDF><cc:Work
       rdf:about=""><dc:format>image/svg+xml</dc:format><dc:type
         rdf:resource="http://purl.org/dc/dcmitype/StillImage" /></cc:Work></rdf:RDF></metadata><defs
   id="defs9" /><sodipodi:namedview
   pagecolor="#ffffff"
   bordercolor="#666666"
   borderopacity="1"
   objecttolerance="10"
   gridtolerance="10"
   guidetolerance="10"
   inkscape:pageopacity="0"
   inkscape:pageshadow="2"
   inkscape:window-width="934"
   inkscape:window-height="514"
   id="namedview7"
   showgrid="false"
   inkscape:zoom="0.4609375"
   inkscape:cx="-155.11864"
   inkscape:cy="256"
   inkscape:window-x="984"
   inkscape:window-y="564"
   inkscape:window-maximized="0"
   inkscape:current-layer="Layer_1" />
<g
   id="g4"
   style="fill:#ffffff;fill-opacity:1">
	<path
   d="M432.8,31H79.2C52.6,31,31,52.6,31,79.2v353.6c0,26.6,21.6,48.2,48.2,48.2h353.6c26.6,0,48.2-21.6,48.2-48.2V79.2   C481,52.6,459.4,31,432.8,31z M191.7,368.5c0,8.9-7.2,16.1-16.1,16.1h-32.1c-8.9,0-16.1-7.2-16.1-16.1V239.9   c0-8.9,7.2-16.1,16.1-16.1h32.1c8.9,0,16.1,7.2,16.1,16.1V368.5z M288.1,368.5c0,8.9-7.2,16.1-16.1,16.1h-32.1   c-8.9,0-16.1-7.2-16.1-16.1v-225c0-8.9,7.2-16.1,16.1-16.1h32.1c8.9,0,16.1,7.2,16.1,16.1V368.5z M384.6,368.5   c0,8.9-7.2,16.1-16.1,16.1h-32.1c-8.9,0-16.1-7.2-16.1-16.1v-64.3c0-8.9,7.2-16.1,16.1-16.1h32.1c8.9,0,16.1,7.2,16.1,16.1V368.5z"
   id="path2"
   style="fill:#ffffff;fill-opacity:1" />
</g>
</svg>