<?xml version="1.0" encoding="UTF-8" standalone="no"?>
<!-- Svg Vector Icons : http://www.onlinewebfonts.com/icon -->

<svg
   xmlns:dc="http://purl.org/dc/elements/1.1/"
   xmlns:cc="http://creativecommons.org/ns#"
   xmlns:rdf="http://www.w3.org/1999/02/22-rdf-syntax-ns#"
   xmlns:svg="http://www.w3.org/2000/svg"
   xmlns="http://www.w3.org/2000/svg"
   xmlns:sodipodi="http://sodipodi.sourceforge.net/DTD/sodipodi-0.dtd"
   xmlns:inkscape="http://www.inkscape.org/namespaces/inkscape"
   version="1.1"
   x="0px"
   y="0px"
   viewBox="0 0 1000 1000"
   enable-background="new 0 0 1000 1000"
   xml:space="preserve"
   id="svg8"
   sodipodi:docname="reply.svg"
   inkscape:version="0.92.4 (5da689c313, 2019-01-14)"><defs
   id="defs12" /><sodipodi:namedview
   pagecolor="#ffffff"
   bordercolor="#666666"
   borderopacity="1"
   objecttolerance="10"
   gridtolerance="10"
   guidetolerance="10"
   inkscape:pageopacity="0"
   inkscape:pageshadow="2"
   inkscape:window-width="934"
   inkscape:window-height="514"
   id="namedview10"
   showgrid="false"
   inkscape:zoom="0.236"
   inkscape:cx="-302.9661"
   inkscape:cy="500"
   inkscape:window-x="984"
   inkscape:window-y="564"
   inkscape:window-maximized="0"
   inkscape:current-layer="svg8" />
<metadata
   id="metadata2"> Svg Vector Icons : http://www.onlinewebfonts.com/icon <rdf:RDF><cc:Work
     rdf:about=""><dc:format>image/svg+xml</dc:format><dc:type
       rdf:resource="http://purl.org/dc/dcmitype/StillImage" /><dc:title></dc:title></cc:Work></rdf:RDF></metadata>
<g
   id="g6"
   style="fill:#ffffff;fill-opacity:1"><path
     d="M838.9,735.2C788.5,781.6,500,990,500,990V863.5c-261.9,0-474.2-191.1-474.2-426.8C25.8,201.1,238.1,10,500,10c261.9,0,474.2,191.1,474.2,426.8C974.2,552.9,922.6,658.3,838.9,735.2L838.9,735.2z M247.1,389.3c-34.9,0-63.2,28.3-63.2,63.2c0,34.9,28.3,63.3,63.2,63.3c34.9,0,63.2-28.3,63.2-63.3C310.3,417.7,282,389.3,247.1,389.3L247.1,389.3z M500,389.3c-34.9,0-63.2,28.3-63.2,63.2c0,34.9,28.3,63.3,63.2,63.3c34.9,0,63.2-28.3,63.2-63.3C563.2,417.7,534.9,389.3,500,389.3L500,389.3z M752.9,389.3c-34.9,0-63.2,28.3-63.2,63.2c0,34.9,28.3,63.3,63.2,63.3c34.9,0,63.2-28.3,63.2-63.3C816.1,417.7,787.8,389.3,752.9,389.3L752.9,389.3z"
     id="path4"
     style="fill:#ffffff;fill-opacity:1" /></g>
</svg>