<?xml version="1.0" encoding="UTF-8" standalone="no"?>
<svg
   xmlns:dc="http://purl.org/dc/elements/1.1/"
   xmlns:cc="http://creativecommons.org/ns#"
   xmlns:rdf="http://www.w3.org/1999/02/22-rdf-syntax-ns#"
   xmlns:svg="http://www.w3.org/2000/svg"
   xmlns="http://www.w3.org/2000/svg"
   xmlns:sodipodi="http://sodipodi.sourceforge.net/DTD/sodipodi-0.dtd"
   xmlns:inkscape="http://www.inkscape.org/namespaces/inkscape"
   id="svg3071"
   viewBox="0 0 256 256"
   version="1.1"
   sodipodi:docname="search_ideogram.svg"
   inkscape:version="0.92.4 (5da689c313, 2019-01-14)">
  <defs
     id="defs4572" />
  <sodipodi:namedview
     pagecolor="#ffffff"
     bordercolor="#666666"
     borderopacity="1"
     objecttolerance="10"
     gridtolerance="10"
     guidetolerance="10"
     inkscape:pageopacity="0"
     inkscape:pageshadow="2"
     inkscape:window-width="1872"
     inkscape:window-height="1032"
     id="namedview4570"
     showgrid="false"
     inkscape:zoom="3.2734375"
     inkscape:cx="128"
     inkscape:cy="128"
     inkscape:window-x="48"
     inkscape:window-y="48"
     inkscape:window-maximized="0"
     inkscape:current-layer="svg3071" />
  <g
     id="layer1"
     transform="translate(-290.27 -334.66)"
     style="fill:#ffffff;fill-opacity:1">
    <path
       id="path3058-6"
       style="block-progression:tb;text-indent:0;color:#000000;text-transform:none;fill:#ffffff;fill-opacity:1"
       d="m393.36 334.66c-26.422 0-52.849 10.027-72.935 30.113-40.172 40.171-40.218 105.74-0.046 145.91 35.217 35.216 89.911 39.558 129.94 13.03l60.918 60.916c8.0386 8.0384 20.97 8.0384 29.008 0 8.0387-8.0384 8.0387-20.969 0-29.008l-60.872-60.916c26.497-40.023 22.127-94.732-13.077-129.94-20.086-20.085-46.514-30.113-72.935-30.113zm-0.046 27.166c19.371 0.009 38.738 7.4275 53.596 22.285 29.716 29.715 29.762 77.521 0.046 107.24-29.716 29.715-77.523 29.715-107.24 0-29.716-29.715-29.716-77.52 0-107.24 14.858-14.858 34.225-22.295 53.596-22.285zm-54.656 99.224a2.9472 2.9471 0 0 0 -2.5325 4.236c10.265 21.49 32.226 36.328 57.602 36.328 5.5064 0 10.842-0.71645 15.932-2.0259a2.9472 2.9471 0 0 0 -0.0921 -5.7094c-25.496-5.6948-48.907-16.882-68.975-32.231a2.9472 2.9471 0 0 0 -1.9339 -0.59857z" />
  </g>
  <metadata
     id="metadata4567">
    <rdf:RDF>
      <cc:Work>
        <dc:format>image/svg+xml</dc:format>
        <dc:type
           rdf:resource="http://purl.org/dc/dcmitype/StillImage" />
        <cc:license
           rdf:resource="http://creativecommons.org/licenses/publicdomain/" />
        <dc:publisher>
          <cc:Agent
             rdf:about="http://openclipart.org/">
            <dc:title>Openclipart</dc:title>
          </cc:Agent>
        </dc:publisher>
        <dc:title>Search Ideogram</dc:title>
        <dc:date>2013-11-11T18:47:39</dc:date>
        <dc:description>search icon/pictogram/Ideogram</dc:description>
        <dc:source>https://openclipart.org/detail/188650/search-ideogram-by-libberry-188650</dc:source>
        <dc:creator>
          <cc:Agent>
            <dc:title>libberry</dc:title>
          </cc:Agent>
        </dc:creator>
        <dc:subject>
          <rdf:Bag>
            <rdf:li>hand lens</rdf:li>
            <rdf:li>library</rdf:li>
            <rdf:li>magnifier</rdf:li>
            <rdf:li>magnifying glass</rdf:li>
            <rdf:li>search</rdf:li>
          </rdf:Bag>
        </dc:subject>
      </cc:Work>
      <cc:License
         rdf:about="http://creativecommons.org/licenses/publicdomain/">
        <cc:permits
           rdf:resource="http://creativecommons.org/ns#Reproduction" />
        <cc:permits
           rdf:resource="http://creativecommons.org/ns#Distribution" />
        <cc:permits
           rdf:resource="http://creativecommons.org/ns#DerivativeWorks" />
      </cc:License>
    </rdf:RDF>
  </metadata>
</svg>
