<?xml version="1.0" encoding="iso-8859-1"?>
<!-- Generator: Adobe Illustrator 19.2.1, SVG Export Plug-In . SVG Version: 6.00 Build 0)  -->
<svg version="1.1" xmlns="http://www.w3.org/2000/svg" xmlns:xlink="http://www.w3.org/1999/xlink" x="0px" y="0px"
	 viewBox="0 0 40 40" style="enable-background:new 0 0 40 40;" xml:space="preserve">
<g >
	<g>
		<path style="fill:#C8D1DB;" d="M11,30.5C5.21,30.5,0.5,25.79,0.5,20S5.21,9.5,11,9.5h18c5.79,0,10.5,4.71,10.5,10.5
			S34.79,30.5,29,30.5H11z"/>
		<g>
			<path style="fill:#66798F;" d="M29,10c5.514,0,10,4.486,10,10s-4.486,10-10,10H11C5.486,30,1,25.514,1,20s4.486-10,10-10H29
				 M29,9H11C4.925,9,0,13.925,0,20v0c0,6.075,4.925,11,11,11h18c6.075,0,11-4.925,11-11v0C40,13.925,35.075,9,29,9L29,9z"/>
		</g>
	</g>
	<path style="fill:#FFFFFF;" d="M11,12L11,12c-4.418,0-8,3.582-8,8v0c0,4.418,3.582,8,8,8h0c4.418,0,8-3.582,8-8v0
		C19,15.582,15.418,12,11,12z"/>
</g>
<g >
</g>
</svg>
